<svg xmlns="http://www.w3.org/2000/svg" viewBox="0.1436 6 527.8564 185" width="527.856px" height="185px"
    preserveAspectRatio="none">
    <defs>
        <filter id="filter0_d_1760_16129" x="0" y="0" width="532" height="197" filterUnits="userSpaceOnUse"
            color-interpolation-filters="sRGB">
            <feFlood flood-opacity="0" result="BackgroundImageFix" />
            <feColorMatrix in="SourceAlpha" type="matrix" values="0 0 0 0 0 0 0 0 0 0 0 0 0 0 0 0 0 0 127 0"
                result="hardAlpha" />
            <feOffset />
            <feGaussianBlur stdDeviation="3" />
            <feComposite in2="hardAlpha" operator="out" />
            <feColorMatrix type="matrix" values="0 0 0 0 0 0 0 0 0 0 0 0 0 0 0 0 0 0 0.3 0" />
            <feBlend mode="normal" in2="BackgroundImageFix" result="effect1_dropShadow_1760_16129" />
            <feBlend mode="normal" in="SourceGraphic" in2="effect1_dropShadow_1760_16129" result="shape" />
        </filter>
        <linearGradient id="paint0_linear_1760_16129" x1="526" y1="191" x2="6" y2="5.99999"
            gradientUnits="userSpaceOnUse">
            <stop stop-color="#546F8C" />
            <stop offset="1" stop-color="#E7F3FF" />
        </linearGradient>
        <filter id="filter1_d_1760_16129" x="0" y="0" width="532" height="197" filterUnits="userSpaceOnUse"
            color-interpolation-filters="sRGB">
            <feFlood flood-opacity="0" result="BackgroundImageFix" />
            <feColorMatrix in="SourceAlpha" type="matrix" values="0 0 0 0 0 0 0 0 0 0 0 0 0 0 0 0 0 0 127 0"
                result="hardAlpha" />
            <feOffset />
            <feGaussianBlur stdDeviation="3" />
            <feComposite in2="hardAlpha" operator="out" />
            <feColorMatrix type="matrix" values="0 0 0 0 0 0 0 0 0 0 0 0 0 0 0 0 0 0 0.3 0" />
            <feBlend mode="normal" in2="BackgroundImageFix" result="effect1_dropShadow_1760_16129" />
            <feBlend mode="normal" in="SourceGraphic" in2="effect1_dropShadow_1760_16129" result="shape" />
        </filter>
        <clipPath id="clip1_1760_16129">
            <path
                d="M6 14C6 9.58172 9.58172 6 14 6H518C522.418 6 526 9.58172 526 14V183C526 187.418 522.418 191 518 191H14C9.58172 191 6 187.418 6 183V14Z"
                fill="white" />
        </clipPath>
        <linearGradient id="paint1_linear_1760_16129" x1="7.93982" y1="116.902" x2="528" y2="116.902"
            gradientUnits="userSpaceOnUse">
            <stop stop-color="#BACADA" />
            <stop offset="1" stop-color="#55789E" />
        </linearGradient>
        <filter id="filter2_f_1760_16129" x="-0.856445" y="37" width="529.856" height="155" filterUnits="userSpaceOnUse"
            color-interpolation-filters="sRGB">
            <feFlood flood-opacity="0" result="BackgroundImageFix" />
            <feBlend mode="normal" in="SourceGraphic" in2="BackgroundImageFix" result="shape" />
            <feGaussianBlur stdDeviation="0.5" result="effect1_foregroundBlur_1760_16129" />
        </filter>
        <linearGradient id="paint2_linear_1760_16129" x1="386" y1="6" x2="452" y2="165" gradientUnits="userSpaceOnUse">
            <stop offset="0.45" stop-color="white" />
            <stop offset="1" stop-color="#E0E0E0" />
        </linearGradient>
        <filter id="filter3_d_1760_16129" x="344" y="6" width="186" height="167" filterUnits="userSpaceOnUse"
            color-interpolation-filters="sRGB">
            <feFlood flood-opacity="0" result="BackgroundImageFix" />
            <feColorMatrix in="SourceAlpha" type="matrix" values="0 0 0 0 0 0 0 0 0 0 0 0 0 0 0 0 0 0 127 0"
                result="hardAlpha" />
            <feOffset dy="4" />
            <feGaussianBlur stdDeviation="2" />
            <feComposite in2="hardAlpha" operator="out" />
            <feColorMatrix type="matrix" values="0 0 0 0 0 0 0 0 0 0 0 0 0 0 0 0 0 0 0.25 0" />
            <feBlend mode="normal" in2="BackgroundImageFix" result="effect1_dropShadow_1760_16129" />
            <feBlend mode="normal" in="SourceGraphic" in2="effect1_dropShadow_1760_16129" result="shape" />
        </filter>
    </defs>
    <g filter="url(#filter0_d_1760_16129)" id="object-0"
        transform="matrix(0.9999999999999999, 0, 0, 0.9999999999999999, 0, 0)">
        <path
            d="M6 14C6 9.58172 9.58172 6 14 6H518C522.418 6 526 9.58172 526 14V183C526 187.418 522.418 191 518 191H14C9.58172 191 6 187.418 6 183V14Z"
            fill="url(#paint0_linear_1760_16129)" clip-path="url(#clip1_1760_16129)"
            filter="url(#filter1_d_1760_16129)" />
        <path d="M7.93982 148.393C236 198 528 38 528 38V191H7.93982C7.93982 191 -9.60178 144.578 7.93982 148.393Z"
            fill="url(#paint1_linear_1760_16129)" filter="url(#filter2_f_1760_16129)"
            clip-path="url(#clip1_1760_16129)" />
        <path
            d="M370.227 6H526V145.049C526 145.049 405.837 189.939 363.365 145.049C325.164 104.675 370.227 6 370.227 6Z"
            fill="url(#paint2_linear_1760_16129)" filter="url(#filter3_d_1760_16129)"
            clip-path="url(#clip1_1760_16129)" />
    </g>
</svg>