<svg width="36" height="36" viewBox="0 0 36 36" fill="none" xmlns="http://www.w3.org/2000/svg">
<path d="M0 9.49486V13.3264H5.628L0 9.49486ZM4.664 30.8264H13V25.1515L4.664 30.8264ZM23 25.1525V30.8264H31.335L23 25.1525ZM0 23.0486V26.8801L5.63 23.0486H0ZM31.337 5.54861H23V11.2235L31.337 5.54861ZM36 26.8811V23.0486H30.369L36 26.8811ZM36 13.3264V9.49486L30.371 13.3264H36ZM13 5.54861H4.664L13 11.2235V5.54861Z" fill="#00247D"/>
<path d="M25.14 23.0486L34.852 29.6607C35.3263 29.1856 35.6672 28.6001 35.842 27.9603L28.627 23.0486H25.14ZM13 23.0486H10.859L1.14798 29.6597C1.66898 30.175 2.33698 30.5435 3.08598 30.7146L13 23.9654V23.0486ZM23 13.3264H25.141L34.852 6.71529C34.322 6.1925 33.6503 5.82671 32.915 5.66043L23 12.4096V13.3264ZM10.859 13.3264L1.14798 6.71529C0.673936 7.19068 0.332797 7.77603 0.156982 8.41571L7.37198 13.3264H10.859Z" fill="#CF1B2B"/>
<path d="M36 21.1042H21V30.8264H23V25.1525L31.335 30.8264H32C32.5313 30.8265 33.0572 30.7234 33.5469 30.5232C34.0367 30.3231 34.4804 30.0298 34.852 29.6607L25.14 23.0486H28.627L35.842 27.9603C35.935 27.6326 36 27.2933 36 26.9375V26.8811L30.369 23.0486H36V21.1042ZM0 21.1042V23.0486H5.63L0 26.8801V26.9375C0 27.9982 0.439 28.9578 1.148 29.6597L10.859 23.0486H13V23.9654L3.086 30.7136C3.38 30.7817 3.684 30.8264 4 30.8264H4.664L13 25.1515V30.8264H15V21.1042H0ZM36 9.4375C36.0006 8.4186 35.5881 7.44051 34.852 6.71528L25.141 13.3264H23V12.4096L32.915 5.66042C32.6155 5.58899 32.3084 5.55147 32 5.54861H31.337L23 11.2235V5.54861H21V15.2708H36V13.3264H30.371L36 9.49487V9.4375ZM13 5.54861V11.2235L4.664 5.54861H4C3.46862 5.54839 2.94257 5.65149 2.45278 5.85185C1.96299 6.0522 1.51936 6.34577 1.148 6.71528L10.859 13.3264H7.372L0.157 8.4157C0.0577802 8.74792 0.00497341 9.0916 0 9.4375L0 9.49487L5.628 13.3264H0V15.2708H15V5.54861H13Z" fill="#EEEEEE"/>
<path d="M21 14.8394V5.17468H15V14.8394H0V20.6382H15V30.3029H21V20.6382H36V14.8394H21Z" fill="#CF1B2B"/>
</svg>
