<svg width="252" height="253" viewBox="0 0 252 253" fill="none" xmlns="http://www.w3.org/2000/svg">
<path fill-rule="evenodd" clip-rule="evenodd" d="M196 0.311523C181.148 0.311523 166.904 6.2115 156.402 16.7135C145.9 27.2156 140 41.4594 140 56.3115C140 71.1637 145.9 85.4075 156.402 95.9095C166.904 106.412 181.148 112.312 196 112.312C210.852 112.312 225.096 106.412 235.598 95.9095C246.1 85.4075 252 71.1637 252 56.3115C252 41.4594 246.1 27.2156 235.598 16.7135C225.096 6.2115 210.852 0.311523 196 0.311523ZM0 196.312C0 181.459 5.89998 167.216 16.402 156.714C26.9041 146.212 41.1479 140.312 56 140.312C70.8521 140.312 85.0959 146.212 95.598 156.714C106.1 167.216 112 181.459 112 196.312C112 211.164 106.1 225.407 95.598 235.909C85.0959 246.412 70.8521 252.312 56 252.312C41.1479 252.312 26.9041 246.412 16.402 235.909C5.89998 225.407 0 211.164 0 196.312ZM140 154.312C140 150.598 141.475 147.038 144.101 144.412C146.726 141.787 150.287 140.312 154 140.312H238C241.713 140.312 245.274 141.787 247.9 144.412C250.525 147.038 252 150.598 252 154.312V224.312C252 231.738 249.05 238.859 243.799 244.111C238.548 249.362 231.426 252.312 224 252.312H168C160.574 252.312 153.452 249.362 148.201 244.111C142.95 238.859 140 231.738 140 224.312V154.312ZM0 14.3115C0 10.5985 1.475 7.03754 4.1005 4.41203C6.72601 1.78652 10.287 0.311523 14 0.311523H98C101.713 0.311523 105.274 1.78652 107.899 4.41203C110.525 7.03754 112 10.5985 112 14.3115V84.3115C112 91.7376 109.05 98.8595 103.799 104.111C98.548 109.362 91.4261 112.312 84 112.312H28C20.5739 112.312 13.452 109.362 8.20101 104.111C2.94999 98.8595 0 91.7376 0 84.3115V14.3115Z" fill="#2B479B" fill-opacity="0.1"/>
</svg>
