<svg width="331" height="314" viewBox="0 0 331 314" fill="none" xmlns="http://www.w3.org/2000/svg">
<circle cx="27.3759" cy="147.146" r="27.3759" fill="#2B479B" fill-opacity="0.1"/>
<path d="M210.5 108.811C210.5 108.811 208.867 106.373 207.5 104.811C206.133 103.249 203.5 100.811 203.5 100.811L237 67.3112C237 67.3112 238.795 69.8816 240.3 71.3114C241.914 72.845 244 74.3114 244 74.3114L210.5 108.811Z" fill="#2B479B" fill-opacity="0.1"/>
<path d="M210.5 188.312C210.5 188.312 212.342 186.311 213.5 184.311C214.494 182.594 216 179.811 216 179.811L262 206.812C262 206.812 259.976 209.552 259 211.212C258.024 212.871 257 215.312 257 215.312L210.5 188.312Z" fill="#2B479B" fill-opacity="0.1"/>
<path d="M112 195.312C112 195.312 114.063 197.388 115.5 198.812C116.83 200.129 119.5 201.812 119.5 201.812L78 243.312C78 243.312 75.9826 240.764 74.5 239.312C73.2141 238.052 71 236.312 71 236.312L112 195.312Z" fill="#2B479B" fill-opacity="0.1"/>
<path d="M93.5 61.9115C93.5 61.9115 97.5 59.6865 98 59.3115C98.5 58.9364 101.5 56.5115 101.5 56.5115L127.221 90.1115C127.221 90.1115 125.128 91.1432 122.788 92.7001C120.798 94.0239 118.804 95.3116 118.804 95.3116L93.5 61.9115Z" fill="#2B479B" fill-opacity="0.1"/>
<circle cx="79.6398" cy="32.6649" r="32.3534" fill="#2B479B" fill-opacity="0.1"/>
<ellipse cx="44.7976" cy="270.339" rx="42.3083" ry="43.5526" fill="#2B479B" fill-opacity="0.1"/>
<circle cx="261.316" cy="50.0854" r="29.8646" fill="#2B479B" fill-opacity="0.1"/>
<circle cx="292.425" cy="230.518" r="38.5752" fill="#2B479B" fill-opacity="0.1"/>
<circle cx="158.034" cy="148.389" r="65.9511" fill="#2B479B" fill-opacity="0.1"/>
<path d="M54.3 152.312C54.3 152.312 54.75 149.812 54.75 147.312C54.75 144.812 54.3 142.312 54.3 142.312L92.35 142.312C92.35 142.312 92.1 145.32 92.1 147.312C92.1 149.303 92.2 152.312 92.2 152.312L54.3 152.312Z" fill="#2B479B" fill-opacity="0.1"/>
</svg>
