<svg width="120" height="120" viewBox="0 0 120 120" fill="none" xmlns="http://www.w3.org/2000/svg">
<path d="M62.79 14.9101C60.9707 14.2943 58.9993 14.2943 57.18 14.9101L23.3 26.3851C22.1965 26.7435 21.2218 27.4168 20.496 28.322C19.7703 29.2273 19.325 30.325 19.215 31.4801C17.53 52.6101 20.455 68.2351 27.4 80.0401C34.12 91.465 44.87 99.7701 59.985 105.96C75.115 99.7701 85.875 91.465 92.595 80.0401C99.545 68.2401 102.47 52.6101 100.785 31.4801C100.675 30.325 100.23 29.2273 99.5039 28.322C98.7781 27.4168 97.8035 26.7435 96.7 26.3851L62.79 14.9101ZM54.775 7.81006C58.1536 6.66464 61.8153 6.66288 65.195 7.80506L99.105 19.2801C101.596 20.1096 103.789 21.6499 105.415 23.7112C107.041 25.7725 108.028 28.2645 108.255 30.8801C110.02 52.9301 107.055 70.26 99.06 83.845C91.04 97.47 78.255 106.835 61.36 113.49C60.4764 113.838 59.4936 113.838 58.61 113.49C41.73 106.835 28.95 97.47 20.935 83.845C12.945 70.26 9.98 52.9251 11.74 30.8801C11.9666 28.2645 12.9537 25.7725 14.5796 23.7112C16.2055 21.6499 18.3992 20.1096 20.89 19.2801L54.775 7.81006Z" fill="#2B479B"/>
<path d="M60 100C85.16 89.8 97.03 71.91 94.715 38.165C94.455 34.33 91.835 31.085 88.2 29.82L64.1 21.43C62.7817 20.971 61.3959 20.7361 60 20.735V100Z" fill="#2B479B"/>
</svg>
