<svg width="120" height="121" viewBox="0 0 120 121" fill="none" xmlns="http://www.w3.org/2000/svg">
<path fill-rule="evenodd" clip-rule="evenodd" d="M99.0002 51.4002C97.4503 35.5002 88.0502 10.5001 59.0004 10.5001C29.9503 10.5001 20.5502 35.5002 19.0003 51.4002C13.5628 53.4639 9.97616 58.6843 10.0003 64.5001V71.5002C10.0003 79.2322 16.2684 85.5001 24.0002 85.5001C31.7323 85.5001 38.0004 79.232 38.0004 71.5002V64.5001C37.9751 58.8097 34.5204 53.6966 29.2502 51.5502C30.2503 42.35 35.1504 20.5002 59.0004 20.5002C82.8504 20.5002 87.7003 42.35 88.7004 51.5502C83.441 53.7013 80.0037 58.8179 80.0004 64.5001V71.5002C80.0111 74.1345 80.7622 76.7127 82.1679 78.9406C83.5736 81.1686 85.5773 82.9564 87.9504 84.1002C85.8504 88.0501 80.5003 93.4002 67.3502 95.0001C64.7217 91.0086 59.636 89.4351 55.2124 91.2447C50.7891 93.054 48.2641 97.7408 49.1866 102.43C50.1091 107.12 54.221 110.5 59.0004 110.5C60.8523 110.49 62.6649 109.965 64.2363 108.986C65.8077 108.006 67.0762 106.609 67.9003 104.95C89.3503 102.5 96.2004 91.4502 98.3503 84.9501C104.167 83.0659 108.079 77.6139 108 71.5002V64.5001C108.024 58.6843 104.438 53.4639 99.0002 51.4002ZM28.0003 71.5002C28.0003 73.7092 26.2094 75.5001 24.0002 75.5001C21.791 75.5001 20.0004 73.7094 20.0004 71.5002V64.5001C19.9963 63.9723 20.0968 63.4488 20.296 62.96C20.4952 62.4711 20.7892 62.0266 21.1611 61.6519C21.5329 61.2772 21.9752 60.9798 22.4625 60.7769C22.9498 60.5739 23.4725 60.4694 24.0003 60.4694C24.5282 60.4694 25.0509 60.5739 25.5382 60.7769C26.0255 60.9798 26.4678 61.2772 26.8396 61.6519C27.2115 62.0266 27.5055 62.4711 27.7047 62.96C27.9039 63.4488 28.0043 63.9723 28.0003 64.5001V71.5002ZM90.0002 64.5001C90.0002 62.2909 91.7911 60.5 94.0003 60.5C96.2095 60.5 98.0004 62.2909 98.0004 64.5001V71.5002C98.0004 73.7092 96.2095 75.5001 94.0003 75.5001C91.7911 75.5001 90.0002 73.7094 90.0002 71.5002V64.5001Z" fill="#2B479B"/>
</svg>
